<svg xmlns="http://www.w3.org/2000/svg" viewBox="0 0 64 64" width="64" height="64">
  <rect width="64" height="64" rx="14" fill="#ffffff"/>
  <g transform="translate(2, 0)">
    <!-- S - bold italic path -->
    <path d="M6 49 C8 52 12 54 17 54 C23 54 26 51 26 47.5 C26 44 23 42.5 17 40.5 C11 38.5 7 36 7 30.5 C7 25 11.5 22 18 22 C23 22 26.5 24 28.5 27 L24.5 30 C23 28 21 26.5 18 26.5 C14.5 26.5 12.5 28.5 12.5 30.5 C12.5 33 15 34.5 20 36 C26 38 30.5 40 30.5 46.5 C30.5 52 26 56 18 56 C12 56 7.5 53 5 49 Z" fill="#D4622A"/>
    <!-- I - bold italic -->
    <rect x="32" y="22" width="7" height="34" rx="1" fill="#D4622A" transform="skewX(-4)"/>
    <!-- B - bold italic path -->
    <path d="M42 22 L53 22 C58 22 61 25 61 29 C61 32 59.5 34 57 35.5 C60 37 62 39.5 62 43 C62 48 58.5 52 52.5 52 L42 52 Z M48 34 L52 34 C55 34 57 32.5 57 30 C57 27.5 55 26 52 26 L48 26 Z M48 48 L52 48 C55.5 48 57.5 46 57.5 43 C57.5 40 55.5 38 52 38 L48 38 Z" fill="#D4622A"/>
  </g>
  <!-- Sun rays -->
  <line x1="54" y1="12" x2="60" y2="6" stroke="#D4622A" stroke-width="3" stroke-linecap="round"/>
  <line x1="57" y1="18" x2="63" y2="14" stroke="#D4622A" stroke-width="2.5" stroke-linecap="round"/>
  <line x1="51" y1="8" x2="55" y2="2" stroke="#D4622A" stroke-width="2.5" stroke-linecap="round"/>
  <line x1="58" y1="24" x2="63" y2="22" stroke="#D4622A" stroke-width="2" stroke-linecap="round"/>
</svg>
